<svg width="178" height="52" viewBox="0 0 178 52" fill="none" xmlns="http://www.w3.org/2000/svg">
<path d="M178 46.4647C178 49.2994 175.73 51.5845 172.913 51.5845H5.92689C3.08152 51.5845 0.782227 49.2994 0.782227 46.4647V5.56424C0.782227 2.70063 3.08152 0.415527 5.89815 0.415527H172.884C175.701 0.415527 178 2.70063 178 5.56424V46.4647Z" fill="white"/>
<path d="M178 46.4647C178 49.2994 175.73 51.5845 172.913 51.5845H5.92689C3.08152 51.5845 0.782227 49.2994 0.782227 46.4647V5.56424C0.782227 2.70063 3.08152 0.415527 5.89815 0.415527H172.884C175.701 0.415527 178 2.70063 178 5.56424V46.4647Z" fill="black"/>
<path d="M39.6986 25.7254C39.6699 21.4155 43.205 19.304 43.3775 19.2172C41.3656 16.2668 38.2616 15.8619 37.1407 15.833C34.5252 15.5437 31.996 17.4238 30.6452 17.4238C29.2943 17.4238 27.225 15.8619 25.0119 15.9197C22.1665 15.9776 19.4936 17.6263 18.0278 20.2007C15.01 25.4651 17.2518 33.1882 20.1546 37.4113C21.5917 39.4939 23.2874 41.8079 25.5005 41.7211C27.6561 41.6344 28.4608 40.3327 31.0763 40.3327C33.663 40.3327 34.4103 41.7211 36.6808 41.6633C39.0088 41.6344 40.4746 39.5807 41.8542 37.4691C43.5212 35.0972 44.1822 32.7254 44.211 32.6097C44.1822 32.6097 39.7561 30.9031 39.6986 25.7254ZM35.4449 13.0272C36.5946 11.552 37.3993 9.58508 37.1694 7.5603C35.4737 7.64708 33.3756 8.74624 32.1684 10.1636C31.105 11.4363 30.1278 13.49 30.3865 15.428C32.2834 15.5726 34.2378 14.4735 35.4449 13.0272Z" fill="white"/>
<path d="M71.0255 41.4319H68.0077L66.3407 36.1964H60.5924L59.0117 41.4319H56.0801L61.7708 23.6138H65.306L71.0255 41.4319ZM65.8521 33.998L64.3575 29.3411C64.1851 28.8783 63.8977 27.7502 63.4666 25.9857H63.4091C63.2366 26.7378 62.9492 27.8659 62.5756 29.3411L61.1098 33.998H65.8521ZM85.6547 34.8369C85.6547 37.0352 85.0512 38.7418 83.8728 40.0145C82.8093 41.1426 81.516 41.7211 79.9352 41.7211C78.2395 41.7211 77.0324 41.1137 76.2851 39.8988V46.6384H73.4397V32.7832C73.4397 31.4237 73.411 30.0063 73.3248 28.5601H75.8252L75.9977 30.5849H76.0552C77.0036 29.0518 78.4407 28.2708 80.3663 28.2708C81.8609 28.2708 83.1255 28.8783 84.1314 30.0642C85.1661 31.308 85.6547 32.87 85.6547 34.8369ZM82.7806 34.9526C82.7806 33.7088 82.4932 32.6675 81.9471 31.8576C81.3435 31.0187 80.51 30.5849 79.4754 30.5849C78.7856 30.5849 78.1533 30.8163 77.5785 31.2791C77.0036 31.7419 76.63 32.3493 76.4575 33.1303C76.3713 33.4195 76.3426 33.7088 76.3138 33.998V36.1385C76.3138 37.0641 76.6013 37.874 77.1761 38.5104C77.7509 39.1468 78.4982 39.4649 79.3891 39.4649C80.4526 39.4649 81.2861 39.06 81.8896 38.2211C82.4645 37.3823 82.7806 36.3121 82.7806 34.9526ZM100.341 34.8369C100.341 37.0352 99.7379 38.7418 98.5595 40.0145C97.4961 41.1426 96.2027 41.7211 94.622 41.7211C92.9262 41.7211 91.7191 41.1137 90.9718 39.8988V46.6384H88.1552V32.7832C88.1552 31.4237 88.1265 30.0063 88.0402 28.5601H90.5407L90.7132 30.5849H90.7706C91.7191 29.0518 93.1562 28.2708 95.0818 28.2708C96.5764 28.2708 97.841 28.8783 98.8469 30.0642C99.8528 31.308 100.341 32.87 100.341 34.8369ZM97.4673 34.9526C97.4673 33.7088 97.1799 32.6675 96.6338 31.8576C96.0303 31.0187 95.1968 30.5849 94.1621 30.5849C93.4723 30.5849 92.84 30.8163 92.2652 31.2791C91.6904 31.7419 91.3167 32.3493 91.1443 33.1303C91.0581 33.4774 91.0006 33.7666 91.0006 33.998V36.1385C91.0006 37.0641 91.288 37.874 91.8628 38.5104C92.4376 39.1468 93.1849 39.4649 94.0759 39.4649C95.1393 39.4649 95.9728 39.06 96.5763 38.2211C97.1512 37.3823 97.4673 36.3121 97.4673 34.9526ZM116.781 36.4278C116.781 37.9319 116.264 39.1757 115.201 40.1302C114.051 41.1715 112.441 41.6922 110.372 41.6922C108.475 41.6922 106.952 41.3162 105.774 40.593L106.435 38.2211C107.67 38.9732 109.05 39.3203 110.545 39.3203C111.608 39.3203 112.441 39.0889 113.045 38.5972C113.649 38.1054 113.936 37.4691 113.936 36.6592C113.936 35.936 113.677 35.3286 113.189 34.8369C112.7 34.3452 111.895 33.8823 110.746 33.4485C107.642 32.2914 106.09 30.5849 106.09 28.3287C106.09 26.8535 106.636 25.6675 107.728 24.7419C108.82 23.8163 110.286 23.3535 112.068 23.3535C113.677 23.3535 115.028 23.6428 116.092 24.1923L115.373 26.5064C114.367 25.9568 113.246 25.6965 111.982 25.6965C110.976 25.6965 110.2 25.9568 109.625 26.4485C109.165 26.8824 108.906 27.432 108.906 28.0683C108.906 28.7626 109.165 29.37 109.711 29.8039C110.171 30.2377 111.033 30.6716 112.298 31.1923C113.821 31.7997 114.942 32.5229 115.66 33.3617C116.408 34.1716 116.781 35.184 116.781 36.4278ZM126.18 30.7006H123.047V36.9484C123.047 38.5393 123.593 39.3203 124.714 39.3203C125.231 39.3203 125.634 39.2914 125.979 39.1757L126.065 41.3451C125.519 41.5476 124.771 41.6633 123.852 41.6633C122.731 41.6633 121.869 41.3162 121.236 40.622C120.604 39.9277 120.288 38.7707 120.288 37.1509V30.6716H118.42V28.5312H120.288V26.1882L123.076 25.3494V28.5601H126.208L126.18 30.7006ZM140.263 34.8947C140.263 36.8617 139.688 38.4815 138.567 39.7542C137.389 41.0558 135.837 41.7211 133.882 41.7211C132.014 41.7211 130.52 41.0848 129.399 39.841C128.278 38.5972 127.732 37.0063 127.732 35.0972C127.732 33.1014 128.307 31.4815 129.456 30.2088C130.606 28.9361 132.158 28.2998 134.084 28.2998C135.952 28.2998 137.475 28.9361 138.596 30.1799C139.717 31.3948 140.263 32.9567 140.263 34.8947ZM137.331 34.9526C137.331 33.7666 137.073 32.7543 136.584 31.9154C135.98 30.903 135.147 30.3824 134.026 30.3824C132.876 30.3824 132.014 30.903 131.411 31.9154C130.893 32.7543 130.663 33.7956 130.663 35.0104C130.663 36.1964 130.922 37.2088 131.411 38.0476C132.014 39.06 132.876 39.5806 133.997 39.5806C135.089 39.5806 135.923 39.06 136.555 38.0187C137.073 37.1509 137.331 36.1385 137.331 34.9526ZM149.489 31.0766C149.201 31.0187 148.885 30.9898 148.598 30.9898C147.592 30.9898 146.816 31.3658 146.299 32.1179C145.839 32.7832 145.58 33.622 145.58 34.6633V41.4029H142.735V32.6096C142.735 31.2501 142.706 29.9196 142.648 28.5601H145.12L145.235 31.0187H145.321C145.609 30.1799 146.097 29.4857 146.73 28.994C147.333 28.5601 148.052 28.2998 148.77 28.2998C149.029 28.2998 149.259 28.3287 149.489 28.3576V31.0766ZM162.192 34.3741C162.192 34.808 162.164 35.2418 162.077 35.6757H153.57C153.599 36.9484 154.001 37.9319 154.806 38.5972C155.524 39.2046 156.444 39.4939 157.594 39.4939C158.858 39.4939 160.008 39.2914 161.043 38.8864L161.474 40.8534C160.267 41.374 158.83 41.6343 157.191 41.6343C155.208 41.6343 153.656 41.0558 152.535 39.8699C151.414 38.684 150.84 37.122 150.84 35.1551C150.84 33.2171 151.357 31.5972 152.42 30.3245C153.513 28.9361 155.007 28.2708 156.875 28.2708C158.715 28.2708 160.123 28.965 161.043 30.3245C161.819 31.4237 162.192 32.7832 162.192 34.3741ZM159.491 33.6509C159.519 32.8121 159.318 32.06 158.945 31.4526C158.456 30.6427 157.709 30.2667 156.674 30.2667C155.754 30.2667 154.978 30.6427 154.404 31.4237C153.944 32.0311 153.656 32.7832 153.57 33.6509H159.491Z" fill="white"/>
<path d="M59.7594 17.3081C58.9834 17.3081 58.2936 17.2792 57.7188 17.1924V8.57265C58.5235 8.45695 59.3283 8.3991 60.133 8.3991C63.3808 8.3991 64.8753 10.0189 64.8753 12.6511C64.8753 15.6594 63.1221 17.3081 59.7594 17.3081ZM60.248 9.49826C59.8169 9.49826 59.4432 9.52718 59.1271 9.58503V16.1222C59.2995 16.1511 59.6157 16.1511 60.0755 16.1511C62.2024 16.1511 63.4095 14.9362 63.4095 12.6511C63.4095 10.6263 62.3173 9.49826 60.248 9.49826ZM69.5601 17.366C67.7207 17.366 66.5423 15.9775 66.5423 14.1263C66.5423 12.1883 67.7494 10.7999 69.6751 10.7999C71.4858 10.7999 72.6929 12.1015 72.6929 14.0395C72.6929 15.9775 71.4283 17.366 69.5601 17.366ZM69.6176 11.7834C68.6116 11.7834 67.9506 12.7379 67.9506 14.0685C67.9506 15.3701 68.6116 16.3246 69.5888 16.3246C70.566 16.3246 71.2271 15.3123 71.2271 14.0395C71.2271 12.7668 70.5948 11.7834 69.6176 11.7834ZM83.1547 10.8867L81.2003 17.1924H79.9069L79.1022 14.4445C78.901 13.7792 78.7285 13.085 78.5848 12.3908H78.5561C78.4411 13.085 78.2687 13.7792 78.0387 14.4445L77.1765 17.1924H75.8831L74.0437 10.8867H75.4808L76.1993 13.8949C76.3718 14.618 76.5155 15.2833 76.6304 15.9197H76.6592C76.7741 15.399 76.9178 14.7337 77.1765 13.8949L78.0675 10.8867H79.2171L80.0794 13.8371C80.2805 14.5602 80.453 15.2544 80.5967 15.9197H80.6254C80.7117 15.2833 80.8554 14.5891 81.0566 13.8371L81.8326 10.8867H83.1547ZM90.3687 17.2213H88.9604V13.5767C88.9604 12.4486 88.5293 11.8991 87.6958 11.8991C86.8623 11.8991 86.2874 12.6222 86.2874 13.4321V17.1924H84.8791V12.709C84.8791 12.1594 84.8791 11.552 84.8216 10.9156H86.0575L86.115 11.8991H86.1437C86.5174 11.2338 87.2934 10.7999 88.1269 10.7999C89.449 10.7999 90.3112 11.8123 90.3112 13.461L90.3687 17.2213ZM94.22 17.2213H92.8117V7.99414H94.22V17.2213ZM99.3072 17.366C97.4678 17.366 96.2894 15.9775 96.2894 14.1263C96.2894 12.1883 97.4965 10.7999 99.4222 10.7999C101.233 10.7999 102.44 12.1015 102.44 14.0395C102.44 15.9775 101.175 17.366 99.3072 17.366ZM99.3647 11.7834C98.3587 11.7834 97.6977 12.7379 97.6977 14.0685C97.6977 15.3701 98.3587 16.3246 99.3359 16.3246C100.313 16.3246 100.974 15.3123 100.974 14.0395C100.974 12.7668 100.342 11.7834 99.3647 11.7834ZM107.93 17.2213L107.815 16.4982H107.786C107.355 17.0767 106.751 17.366 105.946 17.366C104.825 17.366 104.021 16.585 104.021 15.5147C104.021 13.9528 105.372 13.1429 107.7 13.1429V13.0272C107.7 12.1883 107.268 11.7834 106.406 11.7834C105.774 11.7834 105.257 11.928 104.768 12.2462L104.481 11.3206C105.055 10.9445 105.774 10.771 106.636 10.771C108.274 10.771 109.108 11.6387 109.108 13.3743V15.6883C109.108 16.3246 109.137 16.8164 109.194 17.1924L107.93 17.2213ZM107.728 14.0685C106.176 14.0685 105.4 14.4445 105.4 15.3412C105.4 16.0065 105.803 16.3246 106.349 16.3246C107.067 16.3246 107.728 15.7751 107.728 15.0519V14.0685ZM115.862 17.2213L115.805 16.2089H115.776C115.373 16.961 114.712 17.366 113.764 17.366C112.241 17.366 111.12 16.0354 111.12 14.1552C111.12 12.1883 112.269 10.7999 113.879 10.7999C114.712 10.7999 115.316 11.0892 115.661 11.6677H115.69V7.99414H117.098V15.5147C117.098 16.1222 117.127 16.7007 117.155 17.2213H115.862ZM115.661 13.49C115.661 12.5933 115.086 11.8412 114.195 11.8412C113.16 11.8412 112.528 12.7668 112.528 14.0685C112.528 15.3412 113.189 16.2089 114.166 16.2089C115.057 16.2089 115.661 15.428 115.661 14.5313V13.49ZM125.921 17.366C124.082 17.366 122.904 15.9775 122.904 14.1263C122.904 12.1883 124.111 10.7999 126.036 10.7999C127.847 10.7999 129.054 12.1015 129.054 14.0395C129.026 15.9775 127.79 17.366 125.921 17.366ZM125.95 11.7834C124.944 11.7834 124.312 12.7379 124.312 14.0685C124.312 15.3701 124.973 16.3246 125.95 16.3246C126.927 16.3246 127.588 15.3123 127.588 14.0395C127.588 12.7668 126.956 11.7834 125.95 11.7834ZM136.527 17.2213H135.119V13.5767C135.119 12.4486 134.688 11.8991 133.854 11.8991C133.021 11.8991 132.474 12.6222 132.474 13.4321V17.1924H131.066V12.709C131.066 12.1594 131.066 11.552 131.009 10.9156H132.245L132.302 11.8991H132.331C132.704 11.2338 133.48 10.7999 134.314 10.7999C135.636 10.7999 136.498 11.8123 136.498 13.461V17.2213H136.527ZM145.925 11.9569H144.402V15.023C144.402 15.804 144.661 16.18 145.207 16.18C145.465 16.18 145.667 16.1511 145.839 16.1222L145.868 17.1924C145.609 17.3081 145.236 17.337 144.776 17.337C143.684 17.337 143.022 16.7296 143.022 15.1387V11.9569H142.103V10.9156H143.022V9.75859L144.402 9.35363V10.9156H145.925V11.9569ZM153.312 17.2213H151.932V13.6057C151.932 12.4776 151.501 11.8991 150.668 11.8991C149.949 11.8991 149.259 12.3908 149.259 13.4032V17.2213H147.88V7.99414H149.259V11.7834H149.288C149.719 11.0892 150.351 10.742 151.185 10.742C152.507 10.742 153.312 11.7834 153.312 13.4321V17.2213ZM160.871 14.3866H156.675C156.703 15.5726 157.479 16.2668 158.658 16.2668C159.29 16.2668 159.836 16.1511 160.353 15.9775L160.583 16.961C159.98 17.2213 159.29 17.337 158.485 17.337C156.531 17.337 155.352 16.0932 155.352 14.1552C155.352 12.2172 156.531 10.771 158.313 10.771C159.922 10.771 160.928 11.9569 160.928 13.7792C160.928 13.9817 160.899 14.1842 160.871 14.3866ZM159.606 13.4032C159.606 12.4197 159.118 11.7255 158.227 11.7255C157.422 11.7255 156.789 12.4197 156.703 13.4032H159.606Z" fill="white"/>
</svg>
