<svg width="172" height="52" viewBox="0 0 172 52" fill="none" xmlns="http://www.w3.org/2000/svg">
<path d="M165.629 52H6.37088C2.80016 52 0 49.1427 0 45.4991V6.50088C0 2.8573 2.80016 0 6.37088 0H165.629C169.2 0 172 2.8573 172 6.50088V45.5061C172 49.1427 169.2 52 165.629 52Z" fill="black"/>
<path d="M60.3927 13.2614C60.3927 14.3004 60.1381 15.213 59.4983 15.8589C58.7346 16.6382 57.8402 17.0313 56.6981 17.0313C55.5492 17.0313 54.6617 16.6382 53.898 15.8589C53.1343 15.0796 52.749 14.167 52.749 13.0016C52.749 11.8362 53.1343 10.9236 53.898 10.1443C54.6617 9.36506 55.5561 8.97192 56.6981 8.97192C57.2073 8.97192 57.7164 9.10531 58.2255 9.36506C58.7346 9.62482 59.1199 9.88457 59.3745 10.2777L58.7346 10.9306C58.2255 10.2777 57.5857 10.018 56.6981 10.018C55.9345 10.018 55.1708 10.2777 54.6617 10.9306C54.0218 11.4501 53.7673 12.2294 53.7673 13.142C53.7673 14.0547 54.0218 14.8339 54.6617 15.3534C55.3015 15.873 55.9345 16.2661 56.6981 16.2661C57.5925 16.2661 58.2255 16.0063 58.8653 15.3534C59.2506 14.9603 59.5052 14.4408 59.5052 13.7949H56.705V12.7559H60.3996L60.3927 13.2614ZM66.2545 10.0109H62.8145V12.4821H65.9999V13.3948H62.8145V15.8659H66.2545V16.9049H61.7962V9.09829H66.2545V10.0109ZM70.4581 16.8979H69.4399V10.0109H67.2727V9.09829H72.6253V10.0109H70.4581V16.8979ZM76.3199 16.8979V9.09829H77.3381V16.8979H76.3199ZM81.6657 16.8979H80.6474V10.0109H78.4802V9.09829H83.7021V10.0109H81.5349V16.8979H81.6657ZM93.7745 15.8589C93.0108 16.6382 92.1164 17.0313 90.9743 17.0313C89.8254 17.0313 88.9378 16.6382 88.1741 15.8589C87.4105 15.0796 87.0252 14.167 87.0252 13.0016C87.0252 11.8362 87.4105 10.9236 88.1741 10.1443C88.9378 9.36506 89.8322 8.97192 90.9743 8.97192C92.1164 8.97192 93.0108 9.36506 93.7745 10.1443C94.5381 10.9236 94.9234 11.8362 94.9234 13.0016C94.9234 14.167 94.5381 15.0796 93.7745 15.8589ZM88.9309 15.213C89.4401 15.7325 90.2037 16.1257 90.9674 16.1257C91.7311 16.1257 92.4948 15.8659 93.0039 15.213C93.513 14.6935 93.8983 13.9143 93.8983 13.0016C93.8983 12.089 93.6438 11.3097 93.0039 10.7902C92.4948 10.2707 91.7311 9.87755 90.9674 9.87755C90.2037 9.87755 89.4401 10.1373 88.9309 10.7902C88.4218 11.3097 88.0365 12.089 88.0365 13.0016C88.0365 13.9072 88.2911 14.6935 88.9309 15.213ZM96.3201 16.8979V9.09829H97.469L101.164 15.206V9.09829H102.182V16.8979H101.164L97.2145 10.5304V16.8979H96.3201Z" fill="white"/>
<path d="M86.7642 28.3414C83.7095 28.3414 81.2877 30.6792 81.2877 33.9296C81.2877 37.0467 83.7095 39.5178 86.7642 39.5178C89.8189 39.5178 92.2407 37.18 92.2407 33.9296C92.2407 30.5528 89.8258 28.3414 86.7642 28.3414ZM86.7642 37.18C85.1061 37.18 83.7095 35.7479 83.7095 33.8032C83.7095 31.8586 85.113 30.4264 86.7642 30.4264C88.4154 30.4264 89.8189 31.7252 89.8189 33.8032C89.8258 35.7549 88.4223 37.18 86.7642 37.18ZM74.9169 28.3414C71.8621 28.3414 69.4404 30.6792 69.4404 33.9296C69.4404 37.0467 71.8621 39.5178 74.9169 39.5178C77.9716 39.5178 80.3933 37.18 80.3933 33.9296C80.3933 30.5528 77.9716 28.3414 74.9169 28.3414ZM74.9169 37.18C73.2588 37.18 71.8621 35.7479 71.8621 33.8032C71.8621 31.8586 73.2657 30.4264 74.9169 30.4264C76.5749 30.4264 77.9716 31.7252 77.9716 33.8032C77.9716 35.7549 76.5749 37.18 74.9169 37.18ZM60.7716 30.0333V32.3711H66.2549C66.1242 33.6699 65.6151 34.7089 64.9821 35.3618C64.2185 36.141 62.9457 37.0537 60.7785 37.0537C57.3385 37.0537 54.7929 34.3227 54.7929 30.8126C54.7929 27.3024 57.4692 24.5714 60.7785 24.5714C62.5604 24.5714 63.9639 25.3507 64.9821 26.2633L66.6402 24.5714C65.2367 23.2727 63.4548 22.2336 60.9092 22.2336C56.3202 22.2336 52.3711 26.137 52.3711 30.8126C52.3711 35.4881 56.3202 39.3915 60.9092 39.3915C63.4548 39.3915 65.2436 38.6122 66.7709 36.9203C68.2983 35.3618 68.8074 33.1503 68.8074 31.4584C68.8074 30.9389 68.8074 30.4194 68.6767 30.0263L60.7716 30.0333ZM118.619 31.8516C118.11 30.5528 116.837 28.3414 114.03 28.3414C111.23 28.3414 108.932 30.5528 108.932 33.9296C108.932 37.0467 111.223 39.5178 114.284 39.5178C116.706 39.5178 118.233 37.9593 118.742 37.0467L116.961 35.7479C116.321 36.6605 115.557 37.3064 114.284 37.3064C113.011 37.3064 112.248 36.7869 111.608 35.6145L118.873 32.4974L118.619 31.8516ZM111.23 33.6699C111.23 31.5918 112.888 30.4194 114.03 30.4194C114.924 30.4194 115.812 30.9389 116.066 31.5918L111.23 33.6699ZM105.237 39.0053H107.659V22.7532H105.237V39.0053ZM101.419 29.5138C100.779 28.8609 99.7605 28.215 98.4877 28.215C95.8114 28.215 93.2658 30.6862 93.2658 33.8032C93.2658 36.9203 95.6876 39.2651 98.4877 39.2651C99.7605 39.2651 100.779 38.6122 101.288 37.9663H101.419V38.7456C101.419 40.8236 100.27 41.996 98.4877 41.996C97.0842 41.996 96.066 40.957 95.8114 40.0444L93.7749 40.957C94.4148 42.3892 95.9421 44.2075 98.6185 44.2075C101.419 44.2075 103.717 42.5155 103.717 38.4858V28.6011H101.426L101.419 29.5138ZM98.6116 37.18C96.9535 37.18 95.5569 35.7479 95.5569 33.8032C95.5569 31.8586 96.9604 30.4264 98.6116 30.4264C100.263 30.4264 101.542 31.8586 101.542 33.8032C101.542 35.7479 100.27 37.18 98.6116 37.18ZM129.702 22.7532H123.971V39.0053H126.393V32.8976H129.702C132.379 32.8976 134.924 30.9459 134.924 27.8289C134.924 24.7118 132.379 22.7532 129.702 22.7532ZM129.826 30.5528H126.386V24.9646H129.826C131.608 24.9646 132.626 26.5231 132.626 27.6955C132.502 29.1206 131.484 30.5528 129.826 30.5528ZM144.481 28.215C142.699 28.215 140.91 28.9943 140.277 30.6862L142.444 31.5988C142.953 30.6862 143.717 30.4264 144.611 30.4264C145.884 30.4264 147.033 31.2057 147.157 32.5045V32.6379C146.772 32.3781 145.753 31.985 144.735 31.985C142.444 31.985 140.146 33.2837 140.146 35.6285C140.146 37.84 142.059 39.2721 144.095 39.2721C145.753 39.2721 146.517 38.4929 147.15 37.7136H147.281V39.0124H149.572V32.7712C149.324 29.8999 147.157 28.215 144.481 28.215ZM144.226 37.18C143.462 37.18 142.313 36.7869 142.313 35.7479C142.313 34.4491 143.717 34.056 144.859 34.056C145.877 34.056 146.386 34.3157 147.026 34.5755C146.772 36.141 145.499 37.18 144.226 37.18ZM157.601 28.6011L154.924 35.6215H154.794L151.994 28.6011H149.448L153.652 38.4788L151.23 43.9407H153.652L160.146 28.6011H157.601ZM136.197 39.0053H138.619V22.7532H136.197V39.0053Z" fill="white"/>
<path d="M13.2513 9.75122C12.866 10.1444 12.7422 10.7902 12.7422 11.5695V40.3039C12.7422 41.0832 12.9967 41.7361 13.382 42.1222L13.5127 42.2556L29.3092 26.1368V25.877L13.2513 9.75122Z" fill="url(#paint0_linear)"/>
<path d="M34.4006 31.5916L29.1787 26.2631V25.87L34.4006 20.5415L34.5313 20.6749L40.7715 24.3185C42.5534 25.3575 42.5534 27.0494 40.7715 28.0884L34.4006 31.5916Z" fill="url(#paint1_linear)"/>
<path d="M34.5308 31.4582L29.1782 25.9963L13.251 42.2556C13.8908 42.9084 14.7783 42.9084 15.9273 42.3889L34.5308 31.4582Z" fill="url(#paint2_linear)"/>
<path d="M34.5308 20.5416L15.9273 9.75129C14.7783 9.0984 13.8908 9.23179 13.251 9.88468L29.1782 26.0035L34.5308 20.5416Z" fill="url(#paint3_linear)"/>
<path opacity="0.2" d="M34.4001 31.3318L15.9273 41.9887C14.9091 42.6416 14.0147 42.5082 13.3817 41.9887L13.251 42.1221L13.3817 42.2555C14.0215 42.775 14.9091 42.9084 15.9273 42.2555L34.4001 31.3318Z" fill="black"/>
<path opacity="0.12" d="M13.2513 41.9889C12.866 41.5957 12.7422 40.9498 12.7422 40.1706V40.304C12.7422 41.0832 12.9967 41.7361 13.382 42.1222V41.9889H13.2513ZM40.7713 27.6883L34.4004 31.3319L34.5311 31.4653L40.7713 27.8217C41.6657 27.3022 42.0441 26.6493 42.0441 26.0034C42.0441 26.6493 41.535 27.1688 40.7713 27.6883Z" fill="black"/>
<path opacity="0.25" d="M15.9276 9.87755L40.7713 24.3115C41.535 24.831 42.0441 25.3505 42.0441 26.0034C42.0441 25.3505 41.6588 24.7046 40.7713 24.1851L15.9276 9.75119C14.1457 8.71217 12.7422 9.49143 12.7422 11.5695V11.7029C12.7422 9.75119 14.1457 8.83854 15.9276 9.87755Z" fill="white"/>
<defs>
<linearGradient id="paint0_linear" x1="27.7682" y1="11.3165" x2="5.95358" y2="32.6936" gradientUnits="userSpaceOnUse">
<stop stop-color="#00A0FF"/>
<stop offset="0.007" stop-color="#00A1FF"/>
<stop offset="0.26" stop-color="#00BEFF"/>
<stop offset="0.512" stop-color="#00D2FF"/>
<stop offset="0.76" stop-color="#00DFFF"/>
<stop offset="1" stop-color="#00E3FF"/>
</linearGradient>
<linearGradient id="paint1_linear" x1="43.1065" y1="26.0654" x2="12.2778" y2="26.0654" gradientUnits="userSpaceOnUse">
<stop stop-color="#FFE000"/>
<stop offset="0.409" stop-color="#FFBD00"/>
<stop offset="0.775" stop-color="#FFA500"/>
<stop offset="1" stop-color="#FF9C00"/>
</linearGradient>
<linearGradient id="paint2_linear" x1="31.6158" y1="28.9704" x2="2.03482" y2="57.9598" gradientUnits="userSpaceOnUse">
<stop stop-color="#FF3A44"/>
<stop offset="1" stop-color="#C31162"/>
</linearGradient>
<linearGradient id="paint3_linear" x1="9.25071" y1="0.274044" x2="22.4606" y2="13.2197" gradientUnits="userSpaceOnUse">
<stop stop-color="#32A071"/>
<stop offset="0.069" stop-color="#2DA771"/>
<stop offset="0.476" stop-color="#15CF74"/>
<stop offset="0.801" stop-color="#06E775"/>
<stop offset="1" stop-color="#00F076"/>
</linearGradient>
</defs>
</svg>
