<svg width="1488" height="345" viewBox="0 0 1488 345" fill="none" xmlns="http://www.w3.org/2000/svg">
<g clip-path="url(#clip0)">
<path fill-rule="evenodd" clip-rule="evenodd" d="M8.31816 83.1819H216.272H224.59V91.8962V299.85V308.168H216.272H151.311L163.59 291.136H207.954V100.214H16.6363V291.136H60.9998L73.6751 308.168H8.31816H0V299.85V91.8962V83.1819H8.31816Z" fill="#00C78A"/>
<path fill-rule="evenodd" clip-rule="evenodd" d="M112.494 120.811C69.3191 120.811 34.0659 156.064 34.0659 199.24C34.0659 217.064 40.0075 233.305 49.91 246.376L112.89 322.032L175.871 246.376C185.773 233.305 191.715 217.064 191.715 199.24C190.923 156.064 155.669 120.811 112.494 120.811ZM112.494 240.434C89.9164 240.434 71.2996 222.214 71.2996 199.24C71.2996 177.058 89.5203 158.441 112.494 158.441C135.072 158.441 153.689 176.662 153.689 199.636C153.293 222.214 135.072 240.434 112.494 240.434Z" fill="#464D4B"/>
<path fill-rule="evenodd" clip-rule="evenodd" d="M1406.16 118.435H1439.04V137.844C1442.61 130.318 1447.36 124.773 1452.9 120.812C1458.85 116.85 1465.18 114.87 1471.92 114.87C1476.67 114.87 1481.82 116.058 1487.36 118.831L1475.48 151.708C1471.12 149.331 1467.56 148.539 1464.39 148.539C1458.45 148.539 1453.7 152.104 1449.73 159.234C1445.77 166.363 1443.79 180.623 1443.79 201.617V209.142V270.142H1406.16V118.435ZM1355.46 175.474C1353.09 167.156 1347.94 160.422 1340.81 155.272C1333.28 150.123 1324.96 147.35 1315.06 147.35C1304.37 147.35 1295.25 150.123 1287.33 156.065C1282.18 159.63 1277.83 165.967 1273.47 175.078H1355.46V175.474ZM1393.09 205.181H1271.09C1272.68 215.876 1277.43 224.59 1285.35 230.928C1292.88 237.266 1302.78 240.435 1314.66 240.435C1328.92 240.435 1340.81 235.285 1351.11 225.383L1382.79 240.435C1374.87 251.922 1365.37 260.24 1354.27 265.389C1343.18 270.935 1330.11 273.707 1314.66 273.707C1290.9 273.707 1271.88 266.181 1256.83 251.129C1241.78 236.077 1234.65 217.461 1234.65 194.883C1234.65 171.909 1242.18 152.5 1256.83 137.448C1271.88 122 1290.5 114.474 1312.68 114.474C1336.45 114.474 1355.86 122 1370.91 137.052C1385.96 152.104 1393.49 172.305 1393.49 197.259L1393.09 205.181ZM1092.05 60.2078H1130.08V181.019L1186.33 118.435H1233.86L1168.9 190.922L1241.78 270.142H1194.64L1130.08 200.428V270.142H1092.05V60.2078ZM996.197 118.435H1029.07V137.844C1032.64 130.318 1037.39 124.773 1042.94 120.812C1048.88 116.85 1055.22 114.87 1061.95 114.87C1066.7 114.87 1071.85 116.058 1077.4 118.831L1065.52 151.708C1061.16 149.331 1057.59 148.539 1054.42 148.539C1048.48 148.539 1043.73 152.104 1039.77 159.234C1035.81 166.363 1033.83 180.623 1033.83 201.617V209.142V270.142H995.801V118.435H996.197ZM904.301 150.519C892.418 150.519 882.516 154.48 874.594 162.798C866.672 171.117 862.71 181.415 862.71 194.091C862.71 207.162 866.672 217.857 874.197 226.175C882.12 234.493 891.626 238.454 903.905 238.454C915.788 238.454 925.691 234.493 933.613 226.175C941.535 217.857 945.496 207.162 945.496 194.487C945.496 181.415 941.535 171.117 934.009 162.798C926.087 154.48 916.184 150.519 904.301 150.519ZM903.509 114.87C917.769 114.87 931.236 118.435 943.912 125.565C956.587 132.695 966.489 142.201 973.619 154.48C980.749 166.759 984.314 179.831 984.314 194.091C984.314 208.35 980.749 221.818 973.619 234.097C966.489 246.376 956.983 256.279 944.704 263.012C932.425 270.142 918.957 273.707 904.301 273.707C882.516 273.707 863.899 266.181 848.451 250.733C833.003 235.285 825.477 216.668 825.477 194.487C825.477 170.72 834.191 151.311 851.62 135.467C866.275 121.604 883.704 114.87 903.509 114.87ZM607.224 118.435H644.062L674.958 204.785L707.834 118.435H730.808L762.893 203.597L793.392 118.435H830.626L775.964 269.746H751.802L719.321 183.396L686.049 269.746H662.282L607.224 118.435Z" fill="#464D4B"/>
<path fill-rule="evenodd" clip-rule="evenodd" d="M525.23 150.519C513.347 150.519 503.444 154.48 495.522 162.798C487.6 171.116 483.639 181.415 483.639 194.09C483.639 207.162 487.6 217.856 495.126 226.175C503.048 234.493 512.555 238.454 524.834 238.454C536.717 238.454 546.62 234.493 554.542 226.175C562.464 217.856 566.425 207.162 566.425 194.486C566.425 181.415 562.464 171.116 554.938 162.798C547.016 154.48 537.113 150.519 525.23 150.519ZM524.438 114.87C538.698 114.87 552.165 118.435 564.841 125.564C577.516 132.694 587.418 142.201 594.548 154.48C601.678 166.759 605.243 179.831 605.243 194.09C605.243 208.35 601.678 221.817 594.548 234.097C587.418 246.376 577.912 256.278 565.633 263.012C553.354 270.142 539.886 273.707 525.23 273.707C503.445 273.707 484.828 266.181 469.38 250.733C453.932 235.285 446.406 216.668 446.406 194.486C446.406 170.72 455.12 151.311 472.548 135.467C487.204 121.603 504.633 114.87 524.438 114.87ZM431.75 149.331L400.062 166.759C394.12 160.421 388.178 156.064 382.633 153.688C376.691 151.311 369.958 150.123 362.432 150.123C348.172 150.123 336.685 154.48 327.971 162.798C319.257 171.116 314.899 182.207 314.899 195.279C314.899 207.954 319.257 218.649 327.575 226.571C335.893 234.889 346.984 238.85 360.847 238.85C377.88 238.85 390.951 232.908 400.458 221.421L430.165 242.019C413.925 263.012 390.951 273.707 361.243 273.707C334.705 273.707 313.711 265.785 298.659 249.941C283.607 234.097 276.081 215.876 276.081 194.882C276.081 180.227 279.646 166.759 287.172 154.48C294.698 142.201 304.601 132.298 318.068 125.564C331.14 118.435 345.795 114.87 362.036 114.87C377.088 114.87 390.555 118.038 402.438 123.98C414.321 129.922 424.224 138.24 431.75 149.331Z" fill="#00C78A"/>
<path fill-rule="evenodd" clip-rule="evenodd" d="M68.5238 0H70.1082H71.2965C79.6146 0 87.1406 6.73375 86.3484 14.6558L85.5562 24.9545C85.1601 31.2921 80.4069 36.4415 73.6731 38.422C71.2965 39.6103 70.1082 39.6103 67.3355 38.8181C60.2056 37.2337 54.2641 31.2921 53.868 24.9545L53.0758 14.6558C52.6797 6.73375 60.2056 0 68.5238 0Z" fill="#00C78A"/>
<path fill-rule="evenodd" clip-rule="evenodd" d="M85.5575 78.0321H73.2783C73.6744 77.636 73.6744 76.8438 73.6744 76.4477C73.6744 76.0516 73.6744 76.0516 73.6744 75.6555H83.9731C84.3692 75.6555 84.7653 75.6555 85.1614 76.0516C85.5575 76.4477 85.5575 76.8438 85.5575 77.2399V78.0321Z" fill="#00C78A"/>
<path fill-rule="evenodd" clip-rule="evenodd" d="M97.0465 48.72C94.2738 44.759 89.9167 41.5901 85.5595 40.0057C84.3712 40.7979 83.1829 41.9863 81.9946 42.7785C80.4102 43.5707 78.8258 44.3629 76.8453 45.1551C76.0531 45.5512 74.8648 45.5512 74.0726 45.9473C73.2804 46.3434 72.0921 46.3434 71.2999 46.3434C70.5076 46.3434 69.3193 46.3434 68.131 46.3434C67.3388 46.3434 66.1505 45.9473 64.9622 45.9473C62.9817 45.5512 61.3973 44.759 59.4168 43.9668C57.8324 43.1746 56.6441 42.3824 55.4557 41.5901C53.4752 42.3824 51.8908 43.5707 50.3064 44.759C49.5142 45.5512 48.3259 46.3434 47.5337 47.5317H61.3973C62.1895 47.5317 63.3778 47.5317 64.17 47.9278C64.9622 48.3239 65.7544 48.72 66.5466 49.1161C67.3388 49.5122 67.7349 50.3044 68.131 51.0966C68.5271 51.8888 68.9232 52.681 68.9232 53.4732L72.4882 70.9018H83.1829C83.9751 70.9018 84.7673 70.9018 85.5595 71.2979C86.3518 71.694 87.144 72.0901 87.5401 72.8823C88.3323 73.2784 88.7284 74.0706 89.1245 74.8628C89.5206 75.2589 89.9167 77.6355 89.9167 78.4277H101.404V64.168C102.196 58.2265 100.215 52.681 97.0465 48.72Z" fill="#00C78A"/>
<path fill-rule="evenodd" clip-rule="evenodd" d="M22.9723 51.0977H62.1865C63.7709 51.0977 64.5631 52.286 64.9592 53.4743L69.3163 75.656C69.7124 76.8443 68.5241 78.0326 66.9397 78.0326H27.3295C25.745 78.0326 24.9528 76.8443 24.5567 75.656L20.5957 53.4743C20.5957 52.286 21.784 51.0977 22.9723 51.0977Z" fill="#00C78A"/>
<path fill-rule="evenodd" clip-rule="evenodd" d="M156.064 0H154.479H152.895C144.577 0 137.051 6.73375 137.843 14.6558L138.635 24.9545C139.031 31.2921 143.785 36.4415 150.518 38.422C153.291 39.6103 154.479 39.6103 157.252 38.8181C164.382 37.2337 170.323 31.6882 170.72 24.9545L171.512 14.6558C171.908 6.73375 164.382 0 156.064 0Z" fill="#00C78A"/>
<path fill-rule="evenodd" clip-rule="evenodd" d="M139.03 78.0321H151.309C150.913 77.636 150.913 76.8438 150.913 76.4477C150.913 76.0516 150.913 76.0516 150.913 75.6555H140.614C140.218 75.6555 139.822 75.6555 139.426 76.0516C139.03 76.4477 139.03 76.8438 139.03 77.2399V78.0321Z" fill="#00C78A"/>
<path fill-rule="evenodd" clip-rule="evenodd" d="M127.544 48.72C130.317 44.759 134.674 41.5901 139.031 40.0057C140.22 40.7979 141.408 41.9863 142.596 42.7785C144.181 43.5707 145.765 44.3629 147.745 45.1551C148.538 45.5512 149.726 45.5512 150.518 45.9473C151.31 46.3434 152.499 46.3434 153.291 46.3434C154.083 46.3434 155.271 46.3434 156.46 46.3434C157.252 46.3434 158.44 45.9473 159.629 45.9473C161.609 45.5512 163.194 44.759 165.174 43.9668C166.758 43.1746 167.947 42.3824 169.135 41.5901C171.116 42.3824 172.7 43.5707 174.284 44.759C175.077 45.5512 176.265 46.3434 177.057 47.5317H163.194C162.401 47.5317 161.213 47.5317 160.421 47.9278C159.629 48.3239 158.836 48.72 158.044 49.1161C157.252 49.5122 156.856 50.3044 156.46 51.0966C156.064 51.8888 155.668 52.681 155.668 53.4732L152.103 70.9018H141.408C140.616 70.9018 139.823 70.9018 139.031 71.2979C138.239 71.694 137.447 72.0901 137.051 72.8823C136.259 73.2784 135.862 74.0706 135.466 74.8628C135.07 75.2589 134.674 77.6355 134.674 78.4277H122.791V64.168C122.791 58.2265 124.375 52.681 127.544 48.72Z" fill="#00C78A"/>
<path fill-rule="evenodd" clip-rule="evenodd" d="M201.616 51.0977H162.402C160.818 51.0977 160.025 52.286 159.629 53.4743L155.272 75.656C154.876 76.8443 156.064 78.0326 157.649 78.0326H197.259C198.843 78.0326 199.636 76.8443 200.032 75.656L203.993 53.4743C203.993 52.286 203.2 51.0977 201.616 51.0977Z" fill="#00C78A"/>
</g>
<path d="M438.285 329.175H428.748L430.477 321.105H440.014L438.285 329.175ZM434.984 344.633H441.953L443.839 335.725H451.909V329.175H445.254L446.983 321.105H455.105V314.555H448.398L450.232 305.857H443.263L441.429 314.555H431.892L433.726 305.857H426.809L424.975 314.555H415.7V321.105H423.56L421.831 329.175H412.504V335.725H420.416L418.53 344.633H425.447L427.333 335.725H436.87L434.984 344.633Z" fill="#AAB2B1"/>
<path d="M482.718 344.686L491.312 344.633L498.49 318.59L505.355 344.633H514.001L524.219 308.058H516.307L509.809 336.301L502.787 308.058H494.613L487.172 336.459L480.727 308.058H472.867L482.718 344.686Z" fill="#AAB2B1"/>
<path d="M578.802 326.241C578.802 315.289 570.522 307.534 560.095 307.534C549.772 307.534 541.335 315.289 541.335 326.241C541.335 337.245 549.772 345 560.095 345C570.47 345 578.802 337.245 578.802 326.241ZM548.881 326.241C548.881 318.8 553.44 314.136 560.095 314.136C566.697 314.136 571.256 318.8 571.256 326.241C571.256 333.681 566.697 338.45 560.095 338.45C553.44 338.45 548.881 333.681 548.881 326.241Z" fill="#AAB2B1"/>
<path d="M617.755 319.429C617.755 322.73 615.921 324.878 611.834 324.878H605.703V314.136H611.834C615.921 314.136 617.755 316.18 617.755 319.429ZM598.367 308.058V344.633H605.703V330.38H609.162L617.231 344.633H625.72L616.969 329.804C622.838 328.232 625.301 323.725 625.301 319.271C625.301 313.14 620.899 308.058 612.096 308.058H598.367Z" fill="#AAB2B1"/>
<path d="M666.69 344.633H675.965L660.454 326.188L675.546 308.058H666.69L653.38 324.459V308.058H646.044V344.633H653.38V328.337L666.69 344.633Z" fill="#AAB2B1"/>
<path d="M720.469 334.048C720.469 321.158 701.71 325.245 701.71 317.909C701.71 314.922 703.858 313.507 706.74 313.612C709.884 313.664 711.823 315.551 711.98 317.961H720.05C719.579 311.359 714.443 307.534 706.95 307.534C699.404 307.534 694.06 311.516 694.06 318.119C694.007 331.376 712.871 326.607 712.871 334.52C712.871 337.14 710.828 338.974 707.369 338.974C703.963 338.974 702.024 337.035 701.815 334.101H693.955C694.06 341.018 699.928 345 707.526 345C715.858 345 720.469 339.812 720.469 334.048Z" fill="#AAB2B1"/>
<path d="M748.273 324.669V314.031H754.09C758.229 314.031 760.063 316.022 760.063 319.376C760.063 322.625 758.229 324.669 754.09 324.669H748.273ZM767.609 319.376C767.609 313.036 763.207 308.058 754.404 308.058H740.937V344.633H748.273V330.59H754.404C763.836 330.59 767.609 324.931 767.609 319.376Z" fill="#AAB2B1"/>
<path d="M811.763 344.633H819.518L806.366 308.005H797.825L784.672 344.633H792.375L794.785 337.664H809.353L811.763 344.633ZM807.362 331.795H796.777L802.069 316.494L807.362 331.795Z" fill="#AAB2B1"/>
<path d="M836.761 326.293C836.761 337.245 844.778 344.948 855.311 344.948C863.433 344.948 870.035 340.651 872.498 333.105H864.061C862.332 336.668 859.188 338.397 855.258 338.397C848.865 338.397 844.307 333.681 844.307 326.293C844.307 318.852 848.865 314.188 855.258 314.188C859.188 314.188 862.332 315.918 864.061 319.429H872.498C870.035 311.935 863.433 307.586 855.311 307.586C844.778 307.586 836.761 315.341 836.761 326.293Z" fill="#AAB2B1"/>
<path d="M914.094 308.005H892.872V344.633H914.094V338.659H900.208V328.965H912.522V323.149H900.208V313.979H914.094V308.005Z" fill="#AAB2B1"/>
<path d="M947.654 308.058H934.868V344.633H947.654C959.339 344.633 966.938 337.454 966.938 326.398C966.938 315.289 959.339 308.058 947.654 308.058ZM942.205 338.397V314.241H947.392C955.095 314.241 959.444 318.8 959.444 326.398C959.444 333.996 955.095 338.397 947.392 338.397H942.205Z" fill="#AAB2B1"/>
<path d="M1007.76 308.005H986.537V344.633H1007.76V338.659H993.873V328.965H1006.19V323.149H993.873V313.979H1007.76V308.005Z" fill="#AAB2B1"/>
<path d="M1028.53 308.058V344.633H1047.92V338.817H1035.87V308.058H1028.53Z" fill="#AAB2B1"/>
<path d="M1066.69 344.633H1074.03V308.058H1066.69V344.633Z" fill="#AAB2B1"/>
<path d="M1110.42 337.14L1100.36 308.058H1092.5L1105.92 344.633H1114.82L1128.24 308.058H1120.43L1110.42 337.14Z" fill="#AAB2B1"/>
<path d="M1167.97 308.005H1146.75V344.633H1167.97V338.659H1154.08V328.965H1166.4V323.149H1154.08V313.979H1167.97V308.005Z" fill="#AAB2B1"/>
<path d="M1208.13 319.429C1208.13 322.73 1206.3 324.878 1202.21 324.878H1196.08V314.136H1202.21C1206.3 314.136 1208.13 316.18 1208.13 319.429ZM1188.74 308.058V344.633H1196.08V330.38H1199.54L1207.61 344.633H1216.1L1207.34 329.804C1213.21 328.232 1215.68 323.725 1215.68 319.271C1215.68 313.14 1211.27 308.058 1202.47 308.058H1188.74Z" fill="#AAB2B1"/>
<path d="M1257.64 308.005H1236.42V344.633H1257.64V338.659H1243.76V328.965H1256.07V323.149H1243.76V313.979H1257.64V308.005Z" fill="#AAB2B1"/>
<path d="M1291.2 308.058H1278.42V344.633H1291.2C1302.89 344.633 1310.48 337.454 1310.48 326.398C1310.48 315.289 1302.89 308.058 1291.2 308.058ZM1285.75 338.397V314.241H1290.94C1298.64 314.241 1302.99 318.8 1302.99 326.398C1302.99 333.996 1298.64 338.397 1290.94 338.397H1285.75Z" fill="#AAB2B1"/>
<defs>
<clipPath id="clip0">
<rect width="1487.37" height="340.648" fill="white"/>
</clipPath>
</defs>
</svg>
